# xmcd
#
# Track frame offsets: 
#        150
#        13762
#        27374
#        39024
#        52117
#        65183
#        78792
#        94066
#        107645
#        121193
#        131761
#        147051
#        160518
#        174101
#        193628
#        205751
#        219449
#        230002
#        241378
#        257638
#        271185
#        285432
#
# Disc length: 3986 seconds
#
# Revision: 0
# Processed by: cddbd v1.5.2PL0 Copyright (c) Steve Scherf et al.
# Submitted via: ExactAudioCopy v1.1
#
DISCID=280f9016
DTITLE=Various Artist - 60 Jaar Eurovisie Songfestival - CD 2
DYEAR=2015
DGENRE=Eurovision
TTITLE0=Conchita Wurst - Rise Like A Phoenix
TTITLE1=Dana International - Diva
TTITLE2=Sertab Erener - Every Way That I Can
TTITLE3=Helena Paparizou - My Number One
TTITLE4=Lena - Satellite
TTITLE5=Dana - All Kinds Of Everything
TTITLE6=Linda Martin - Why Me?
TTITLE7=Charlotte Nilsson - Take Me To Your Heaven
TTITLE8=Clodagh Rodgers - Jack-In-The-Box
TTITLE9=Sandie Shaw - Puppet On A String
TTITLE10=Corry Brokken - Net Als Toen
TTITLE11=Teddy Scholten - 'n Beetje
TTITLE12=Maribelle - Ik Hou Van Jou
TTITLE13=Baccara - Parlez-Vous Français?
TTITLE14=Frida Boccara - Un Jour, Un Enfant
TTITLE15=Joëlle Ursull - White And Black Blues
TTITLE16=Lulu - Boom Bang-A-Bang
TTITLE17=Isabelle Aubret - Un Premier Amour
TTITLE18=Vicky Leandros - Après Toi
TTITLE19=Carola - Fångad Av En Stormvind
TTITLE20=Secret Garden - Nocturne
TTITLE21=Eimear Quinn - The Voice
EXTD=
EXTT0=
EXTT1=
EXTT2=
EXTT3=
EXTT4=
EXTT5=
EXTT6=
EXTT7=
EXTT8=
EXTT9=
EXTT10=
EXTT11=
EXTT12=
EXTT13=
EXTT14=
EXTT15=
EXTT16=
EXTT17=
EXTT18=
EXTT19=
EXTT20=
EXTT21=
PLAYORDER=
